<?xml version="1.0" encoding="UTF-8" standalone="no"?>
<svg
   version="1.1"
   viewBox="0 0 38 21.111111"
   height="21.111111"
   width="38"
   id="svg4"
   sodipodi:docname="klarna.svg"
   inkscape:version="1.3.2 (091e20ef0f, 2023-11-25)"
   xmlns:inkscape="http://www.inkscape.org/namespaces/inkscape"
   xmlns:sodipodi="http://sodipodi.sourceforge.net/DTD/sodipodi-0.dtd"
   xmlns="http://www.w3.org/2000/svg"
   xmlns:svg="http://www.w3.org/2000/svg"
   xmlns:rdf="http://www.w3.org/1999/02/22-rdf-syntax-ns#"
   xmlns:cc="http://creativecommons.org/ns#"
   xmlns:dc="http://purl.org/dc/elements/1.1/">
  <defs
     id="defs4" />
  <sodipodi:namedview
     id="namedview4"
     pagecolor="#ffffff"
     bordercolor="#000000"
     borderopacity="0.25"
     inkscape:showpageshadow="2"
     inkscape:pageopacity="0.0"
     inkscape:pagecheckerboard="0"
     inkscape:deskcolor="#d1d1d1"
     inkscape:zoom="22.46"
     inkscape:cx="6.3223508"
     inkscape:cy="4.0739092"
     inkscape:window-width="2560"
     inkscape:window-height="1371"
     inkscape:window-x="0"
     inkscape:window-y="0"
     inkscape:window-maximized="1"
     inkscape:current-layer="svg4" />
  <title
     id="title1">Klarna Payment Badge</title>
  <g
     fill="none"
     fill-rule="evenodd"
     id="g4"
     transform="scale(0.84444444)">
    <g
       transform="translate(-310,-37)"
       fill-rule="nonzero"
       id="g3">
      <g
         transform="translate(310,37)"
         id="g2">
        <rect
           x="5.6842999e-14"
           width="45"
           height="25"
           rx="4.3210001"
           fill="#ffb3c7"
           id="rect1"
           y="0" />
        <g
           transform="translate(4.4136,8.4)"
           fill="#0a0b09"
           id="g1">
          <path
             d="m 36.38,6.2463 c -0.58875,0 -1.066,0.48158 -1.066,1.0757 0,0.594 0.47725,1.0757 1.066,1.0757 0.58874,0 1.0661,-0.48167 1.0661,-1.0757 0,-0.59416 -0.47734,-1.0757 -1.0661,-1.0757 z M 32.8727,5.41464 c 0,-0.81338 -0.68897,-1.4726 -1.5389,-1.4726 -0.84993,0 -1.539,0.65925 -1.539,1.4726 0,0.81339 0.68898,1.4728 1.539,1.4728 0.85002,0 1.5389,-0.65941 1.5389,-1.4728 z m 0.0057,-2.8622 h 1.6984 v 5.7242 H 32.8784 V 7.9108 c -0.47982,0.3302 -1.059,0.52431 -1.6837,0.52431 -1.6531,0 -2.9933,-1.3523 -2.9933,-3.0205 0,-1.6682 1.3402,-3.0204 2.9933,-3.0204 0.6247,0 1.2039,0.1941 1.6837,0.5244 V 2.55242 Z M 19.2864,3.29806 V 2.55252 h -1.7389 v 5.7241 h 1.7428 v -2.6725 c 0,-0.90167 0.96849,-1.3863 1.6405,-1.3863 0.0069,0 0.01331,6.677e-4 0.02019,7.527e-4 v -1.6656 c -0.68973,0 -1.3241,0.298 -1.6646,0.7452 z m -4.3316,2.1166 c 0,-0.81338 -0.68905,-1.4726 -1.539,-1.4726 -0.84991,0 -1.539,0.65925 -1.539,1.4726 0,0.81339 0.68905,1.4728 1.539,1.4728 0.84998,0 1.539,-0.65941 1.539,-1.4728 z m 0.0056,-2.8622 h 1.6985 v 5.7242 H 14.9604 V 7.91082 c -0.47982,0.3302 -1.059,0.52431 -1.6836,0.52431 -1.6532,0 -2.9934,-1.3523 -2.9934,-3.0205 0,-1.6682 1.3402,-3.0204 2.9934,-3.0204 0.62464,0 1.2038,0.1941 1.6836,0.5244 V 2.55244 Z M 25.1834,2.3985 c -0.67846,0 -1.3206,0.21255 -1.7499,0.79895 V 2.5528 h -1.6911 v 5.7239 h 1.7119 V 5.2686 c 0,-0.87046 0.57847,-1.2967 1.275,-1.2967 0.74646,0 1.1756,0.44996 1.1756,1.2849 v 3.0199 h 1.6964 V 4.6366 c 0,-1.3321 -1.0496,-2.238 -2.4179,-2.238 z M 7.8094334,8.2767 h 1.7777 V 0.0016 h -1.7777 z m -7.8091,0.00226 h 1.8824 V 6e-5 h -1.8824 z m 6.584,-8.2789 c 0,1.7923 -0.69219,3.4596 -1.9256,4.6989 l 2.602,3.5803 h -2.325 l -2.8278,-3.891 0.72981,-0.55152 c 1.2103,-0.91484 1.9045,-2.3132 1.9045,-3.8367 h 1.8421 z"
             id="path1" />
        </g>
      </g>
    </g>
  </g>
  <metadata
     id="metadata4">
    <rdf:RDF>
      <cc:Work
         rdf:about="">
        <dc:title>Klarna Payment Badge</dc:title>
      </cc:Work>
    </rdf:RDF>
  </metadata>
</svg>
