<?xml version="1.0" encoding="UTF-8" standalone="no"?>
<svg
   version="1.1"
   id="Layer_1"
   x="0px"
   y="0px"
   viewBox="0 0 38 24"
   style="enable-background:new 0 0 38 24;"
   xml:space="preserve"
   sodipodi:docname="paypal.svg"
   inkscape:version="1.1.1 (3bf5ae0d25, 2021-09-20, custom)"
   xmlns:inkscape="http://www.inkscape.org/namespaces/inkscape"
   xmlns:sodipodi="http://sodipodi.sourceforge.net/DTD/sodipodi-0.dtd"
   xmlns:xlink="http://www.w3.org/1999/xlink"
   xmlns="http://www.w3.org/2000/svg"
   xmlns:svg="http://www.w3.org/2000/svg"
   xmlns:rdf="http://www.w3.org/1999/02/22-rdf-syntax-ns#"
   xmlns:cc="http://creativecommons.org/ns#"
   xmlns:dc="http://purl.org/dc/elements/1.1/"><metadata
   id="metadata75"><rdf:RDF><cc:Work
       rdf:about=""><dc:format>image/svg+xml</dc:format><dc:type
         rdf:resource="http://purl.org/dc/dcmitype/StillImage" /></cc:Work></rdf:RDF></metadata><defs
   id="defs73"><linearGradient
     id="a"
     x1="0.48743001"
     x2="0.52402997"
     y1="0.76002002"
     y2="-0.0058300002"><stop
       stop-color="#504678"
       offset="0%"
       id="stop2" /><stop
       stop-color="#504678"
       stop-opacity=".616"
       offset="30.2%"
       id="stop4" /><stop
       stop-color="#504678"
       stop-opacity=".283"
       offset="60.8%"
       id="stop6" /><stop
       stop-color="#504678"
       stop-opacity=".076"
       offset="85.2%"
       id="stop8" /><stop
       stop-color="#504678"
       stop-opacity="0"
       offset="100%"
       id="stop10" /></linearGradient><linearGradient
     id="b"
     x1="5.6612129"
     x2="21.759644"
     y1="25.535652"
     y2="16.290112"
     gradientTransform="scale(1.0895017,0.91785082)"
     gradientUnits="userSpaceOnUse"><stop
       stop-color="#504678"
       offset="0%"
       id="stop13" /><stop
       stop-color="#504678"
       stop-opacity=".872"
       offset="17.9%"
       id="stop15" /><stop
       stop-color="#504678"
       stop-opacity=".536"
       offset="52.6%"
       id="stop17" /><stop
       stop-color="#504678"
       stop-opacity="0"
       offset="100%"
       id="stop19" /></linearGradient><linearGradient
     id="c"
     x1="18.200151"
     x2="17.292404"
     y1="13.974121"
     y2="7.8576007"
     gradientTransform="scale(1.0895017,0.91785082)"
     gradientUnits="userSpaceOnUse"><stop
       stop-color="#504678"
       offset="0%"
       id="stop22" /><stop
       stop-color="#504678"
       stop-opacity=".332"
       offset="64.3%"
       id="stop24" /><stop
       stop-color="#504678"
       stop-opacity="0"
       offset="100%"
       id="stop26" /></linearGradient><linearGradient
     x1="269.53552"
     y1="198.90074"
     x2="199.67202"
     y2="27.180414"
     id="linearGradient-1"
     gradientTransform="scale(0.90025795,1.1107927)"
     gradientUnits="userSpaceOnUse"><stop
       stop-color="#EF2131"
       offset="0%"
       id="stop6-3" /><stop
       stop-color="#FECF2C"
       offset="100%"
       id="stop8-6" /></linearGradient><linearGradient
     x1="168.62755"
     y1="67.160171"
     x2="26.501777"
     y2="336.85607"
     id="linearGradient-2"
     gradientTransform="scale(0.95513894,1.0469681)"
     gradientUnits="userSpaceOnUse"><stop
       stop-color="#FBC52C"
       offset="0%"
       id="stop11" /><stop
       stop-color="#F87130"
       offset="26.3921199%"
       id="stop13-7" /><stop
       stop-color="#EF52E2"
       offset="56.079734%"
       id="stop15-5" /><stop
       stop-color="#661EEC"
       offset="100%"
       id="stop17-3" /></linearGradient><linearGradient
     x1="68.602149"
     y1="136.80249"
     x2="135.40051"
     y2="304.42666"
     id="linearGradient-3"
     gradientTransform="scale(0.90025726,1.1107936)"
     gradientUnits="userSpaceOnUse"><stop
       stop-color="#78F6D8"
       offset="0%"
       id="stop20" /><stop
       stop-color="#77D1F6"
       offset="26.5705044%"
       id="stop22-5" /><stop
       stop-color="#70A4F3"
       offset="55.447147%"
       id="stop24-6" /><stop
       stop-color="#661EEC"
       offset="100%"
       id="stop26-2" /></linearGradient><linearGradient
     x1="149.33801"
     y1="286.69291"
     x2="290.3144"
     y2="17.99737"
     id="linearGradient-4"
     gradientTransform="scale(0.95513896,1.0469681)"
     gradientUnits="userSpaceOnUse"><stop
       stop-color="#536EED"
       offset="0%"
       id="stop29" /><stop
       stop-color="#54C3EC"
       offset="24.6657524%"
       id="stop31" /><stop
       stop-color="#64D769"
       offset="56.4199509%"
       id="stop33" /><stop
       stop-color="#FECF2C"
       offset="100%"
       id="stop35" /></linearGradient></defs><sodipodi:namedview
   pagecolor="#ffffff"
   bordercolor="#666666"
   borderopacity="1"
   objecttolerance="10"
   gridtolerance="10"
   guidetolerance="10"
   inkscape:pageopacity="0"
   inkscape:pageshadow="2"
   inkscape:window-width="2560"
   inkscape:window-height="1367"
   id="namedview71"
   showgrid="false"
   inkscape:zoom="11.313709"
   inkscape:cx="14.407301"
   inkscape:cy="14.407301"
   inkscape:window-x="1920"
   inkscape:window-y="39"
   inkscape:window-maximized="1"
   inkscape:current-layer="Layer_1"
   inkscape:document-rotation="0"
   inkscape:pagecheckerboard="0" />
<style
   type="text/css"
   id="style2">
	.st0{opacity:7.000000e-02;enable-background:new    ;}
	.st1{fill:#FFFFFF;}
	.st2{display:none;fill:#0F2496;}
	.st3{display:none;}
	.st4{display:inline;}
	.st5{clip-path:url(#SVGID_2_);}
	.st6{clip-path:url(#SVGID_4_);fill:#FFFFFF;}
	.st7{clip-path:url(#SVGID_4_);fill:#E21E27;}
	.st8{fill:#F79F1A;}
	.st9{fill:#EA001B;}
	.st10{fill:#FF5F01;}
	.st11{display:none;fill:#3086C8;}
	.st12{display:none;fill:#0079BE;}
	.st13{display:none;fill:#FFFFFF;}
	.st14{fill:none;}
	.st15{fill:#003C5C;}
</style>
<path
   class="st0"
   d="M35,0H3C1.3,0,0,1.3,0,3v18c0,1.7,1.4,3,3,3h32c1.7,0,3-1.3,3-3V3C38,1.3,36.6,0,35,0z"
   id="path4" />
<path
   class="st1"
   d="M35,1c1.1,0,2,0.9,2,2v18c0,1.1-0.9,2-2,2H3c-1.1,0-2-0.9-2-2V3c0-1.1,0.9-2,2-2H35"
   id="path6" />
<path
   class="st2"
   d="M15.8,7.9L14.1,16h2.1L18,7.9H15.8z M29.5,7.9h-1.8c-0.4,0-0.8,0.2-0.9,0.6L23.6,16h2.2l0.4-1.2H29l0.3,1.2h2  L29.5,7.9L29.5,7.9z M26.9,13.2l1.1-3.1l0.6,3.1H26.9L26.9,13.2z M12.7,7.9l-2.2,5.5L9.6,8.7c-0.1-0.5-0.5-0.8-1-0.8H5l0,0.2  c0.7,0.2,1.6,0.4,2.1,0.7C7.4,9,7.5,9.1,7.6,9.5l1.7,6.5h2.2l3.4-8.1L12.7,7.9C12.7,7.9,12.7,7.9,12.7,7.9z M20.8,10.2  c0-0.3,0.3-0.6,0.9-0.7c0.3,0,1.1-0.1,2.1,0.4l0.4-1.7c-0.5-0.2-1.2-0.4-2-0.4c-2.1,0-3.6,1.1-3.6,2.7c0,1.2,1.1,1.8,1.8,2.2  c0.8,0.4,1.1,0.7,1.1,1c0,0.5-0.7,0.8-1.3,0.8c-1.1,0-1.7-0.3-2.2-0.5l-0.4,1.8c0.5,0.2,1.4,0.4,2.4,0.4c2.2,0,3.7-1.1,3.7-2.8  C23.7,11.3,20.7,11.1,20.8,10.2L20.8,10.2z"
   id="path8" />
<g
   class="st3"
   id="g38">
	<g
   class="st4"
   id="g36">
		<defs
   id="defs11">
			<rect
   id="SVGID_1_"
   x="4.5"
   y="2.4"
   width="29"
   height="19.2" />
		</defs>
		<clipPath
   id="SVGID_2_">
			<use
   xlink:href="#SVGID_1_"
   style="overflow:visible;"
   id="use13" />
		</clipPath>
		<g
   class="st5"
   clip-path="url(#SVGID_2_)"
   id="g34">
			<defs
   id="defs17">
				<rect
   id="SVGID_3_"
   x="4.5"
   y="2.4"
   width="29"
   height="19.2" />
			</defs>
			<clipPath
   id="SVGID_4_">
				<use
   xlink:href="#SVGID_3_"
   style="overflow:visible;"
   id="use19" />
			</clipPath>
			<path
   class="st6"
   d="M13.2,3.4c-4.7,0-8.6,3.8-8.6,8.6c0,4.7,3.8,8.6,8.6,8.6h11.5c4.7,0,8.6-3.8,8.6-8.6c0-4.7-3.8-8.6-8.6-8.6     H13.2z"
   clip-path="url(#SVGID_4_)"
   id="path22" />
			<path
   class="st6"
   d="M24.8,20.7H13.2c-4.8,0-8.7-3.9-8.7-8.7c0-4.8,3.9-8.7,8.7-8.7h11.5c4.8,0,8.7,3.9,8.7,8.7     C33.5,16.8,29.6,20.7,24.8,20.7 M13.2,3.4c-4.7,0-8.6,3.8-8.6,8.6c0,4.7,3.8,8.6,8.6,8.6h11.5c4.7,0,8.6-3.8,8.6-8.6     c0-4.7-3.8-8.6-8.6-8.6H13.2z"
   clip-path="url(#SVGID_4_)"
   id="path24" />
			<path
   class="st7"
   d="M26.8,11.5l3.8,4.6c0.8-1.1,1.3-2.5,1.3-4c0-1.6-0.5-3-1.4-4.2L26.8,11.5z"
   clip-path="url(#SVGID_4_)"
   id="path26" />
			<path
   class="st7"
   d="M15.9,7.4c2.9,0,5,0.7,5.2,3.1l3-3.1h6c-1.3-1.5-3.2-2.5-5.4-2.5H13.2c-2.2,0-4.1,1-5.4,2.5H15.9z"
   clip-path="url(#SVGID_4_)"
   id="path28" />
			<path
   class="st7"
   d="M11.2,10.4l-1,2.8h4.1c1.2,0,1.6-0.5,1.9-1.5c0.3-1-0.4-1.3-1.2-1.3H11.2z"
   clip-path="url(#SVGID_4_)"
   id="path30" />
			<path
   class="st7"
   d="M24.2,16.4l-3.2-4c-0.6,2.7-2.5,4-6.1,4H7.7c1.3,1.6,3.3,2.7,5.6,2.7h11.5c2.2,0,4.3-1.1,5.6-2.7H24.2z"
   clip-path="url(#SVGID_4_)"
   id="path32" />
		</g>
	</g>
</g>
<g
   id="g3125"
   class="st3">
	<g
   id="g3115"
   class="st4">
		<g
   id="g3110">
			<path
   id="path2997"
   class="st8"
   d="M30.9,12c0,4.1-3.3,7.4-7.4,7.4s-7.4-3.3-7.4-7.4s3.3-7.4,7.4-7.4S30.9,7.9,30.9,12z" />
			<path
   id="path2995"
   class="st9"
   d="M21.8,12c0,4.1-3.3,7.4-7.4,7.4S7.1,16.1,7.1,12s3.3-7.4,7.4-7.4S21.8,7.9,21.8,12L21.8,12z" />
			<path
   id="path2999"
   class="st10"
   d="M19,6.2c-1.7,1.4-2.8,3.5-2.8,5.8s1.1,4.5,2.8,5.8c1.7-1.4,2.8-3.5,2.8-5.8S20.7,7.5,19,6.2     L19,6.2z" />
		</g>
	</g>
</g>
<path
   class="st11"
   d="M2.3,0C1,0,0,0.9,0,2V22c0,1.1,1,2,2.3,2h33.2c1.4,0,2.5-0.9,2.5-2V2c0-1.1-1.1-2-2.5-2H2.3z M17.4,13.3  L15.9,10h-2.1v4.7L11.7,10h-1.7L7.9,15h1.3l0.5-1.2h2.5l0.5,1.2h2.5v-3.7l1.7,3.7H18l1.6-3.6V15h1.5v-5H19L17.4,13.3z M10.1,12.7  l0.8-1.7l0.8,1.7H10.1z M27.4,11.6L26,10h-4V15h3.8l1.5-1.6l1.5,1.6h1.1v-0.5l-1.8-2l1.8-1.9V10h-1.1L27.4,11.6z M25.1,13.9h-1.9v-1  H25v-0.9h-1.8v-1l2.1,0l1.2,1.4C26.5,12.5,25.1,13.9,25.1,13.9z M31,10.7l-1.7,1.8l1.7,1.8V16h-1.1v0h-1.7l-0.9-1.1l-1,1.1h-4.8v0  H19v0h0v-0.5L18.7,16h-2.3l-0.3-0.6V16h-4.2l-0.5-1.2h-0.8L10,16H7.9v0H7v-1.9l0.9-1.6v0L9.4,9h3.1l0.4,1V9h3.8l0.8,1.7L18.4,9h3v0  h0.4v0h-0.4v0h5.2l0.9,1l1-1h1.5v0H31V10.7z"
   id="path46" />
<path
   class="st12"
   d="M20.8,20.3c4.6,0,8.7-3.7,8.7-8.3c0-5-4.2-8.4-8.7-8.4h-3.9c-4.6,0-8.4,3.4-8.4,8.4c0,4.5,3.8,8.3,8.4,8.3  H20.8z"
   id="path48" />
<path
   class="st13"
   d="M16.9,4.4c-4.2,0-7.6,3.4-7.6,7.6c0,4.2,3.4,7.6,7.6,7.6c4.2,0,7.6-3.4,7.6-7.6C24.5,7.8,21.1,4.4,16.9,4.4z   M12.1,12L12.1,12c0-2.1,1.3-3.8,3.1-4.5v9C13.4,15.8,12.1,14,12.1,12z M18.6,16.5L18.6,16.5v-9c1.8,0.7,3.1,2.5,3.1,4.5  C21.7,14,20.4,15.8,18.6,16.5z"
   id="path50" />
<path
   class="st13"
   d="M16.9,4.4c-4.2,0-7.6,3.4-7.6,7.6c0,4.2,3.4,7.6,7.6,7.6c4.2,0,7.6-3.4,7.6-7.6C24.5,7.8,21.1,4.4,16.9,4.4z   M12.1,12L12.1,12c0-2.1,1.3-3.8,3.1-4.5v9C13.4,15.8,12.1,14,12.1,12z M18.6,16.5L18.6,16.5v-9c1.8,0.7,3.1,2.5,3.1,4.5  C21.7,14,20.4,15.8,18.6,16.5z"
   id="path52" />

<g
   id="g265"
   transform="matrix(0.1617458,0,0,0.1617458,82.743412,22.75922)"><g
     id="g119"
     transform="matrix(1.2944086,0,0,1.2944086,-457.14032,-106.32363)"><path
       fill="#253b80"
       d="m 15.292904,50.16 h -6.839 c -0.468,0 -0.866,0.34 -0.939,0.802 l -2.766,17.537 c -0.055,0.346 0.213,0.658 0.564,0.658 h 3.265 c 0.468,0 0.866,-0.34 0.939,-0.803 l 0.746,-4.73 c 0.072,-0.463 0.471,-0.803 0.938,-0.803 h 2.165 c 4.505,0 7.105,-2.18 7.784,-6.5 0.306,-1.89 0.013,-3.375 -0.872,-4.415 -0.972,-1.142 -2.696,-1.746 -4.985,-1.746 z m 0.789,6.405 c -0.374,2.454 -2.249,2.454 -4.062,2.454 h -1.032 l 0.724,-4.583 c 0.043,-0.277 0.283,-0.481 0.563,-0.481 h 0.473 c 1.235,0 2.4,0 3.002,0.704 0.359,0.42 0.469,1.044 0.332,1.906 z"
       id="path2" /><path
       fill="#253b80"
       d="m 35.735904,56.486 h -3.275 c -0.279,0 -0.52,0.204 -0.563,0.481 l -0.145,0.916 -0.229,-0.332 c -0.709,-1.029 -2.29,-1.373 -3.868,-1.373 -3.619,0 -6.71,2.741 -7.312,6.586 -0.313,1.918 0.132,3.752 1.22,5.031 0.998,1.176 2.426,1.666 4.125,1.666 2.916,0 4.533,-1.875 4.533,-1.875 l -0.146,0.91 c -0.055,0.348 0.213,0.66 0.562,0.66 h 2.95 c 0.469,0 0.865,-0.34 0.939,-0.803 l 1.77,-11.209 c 0.056,-0.345 -0.211,-0.658 -0.561,-0.658 z m -4.565,6.374 c -0.316,1.871 -1.801,3.127 -3.695,3.127 -0.951,0 -1.711,-0.305 -2.199,-0.883 -0.484,-0.574 -0.668,-1.391 -0.514,-2.301 0.295,-1.855 1.805,-3.152 3.67,-3.152 0.93,0 1.686,0.309 2.184,0.892 0.499,0.589 0.697,1.411 0.554,2.317 z"
       id="path4-3" /><path
       fill="#253b80"
       d="m 53.177904,56.486 h -3.291 c -0.314,0 -0.609,0.156 -0.787,0.417 l -4.539,6.686 -1.924,-6.425 c -0.121,-0.402 -0.492,-0.678 -0.912,-0.678 h -3.234 c -0.393,0 -0.666,0.384 -0.541,0.754 l 3.625,10.638 -3.408,4.811 c -0.268,0.379 0.002,0.9 0.465,0.9 h 3.287 c 0.312,0 0.604,-0.152 0.781,-0.408 l 10.946,-15.8 c 0.262,-0.378 -0.007,-0.895 -0.468,-0.895 z"
       id="path6-6" /><path
       fill="#179bd7"
       d="m 64.073904,50.16 h -6.84 c -0.467,0 -0.865,0.34 -0.938,0.802 l -2.766,17.537 c -0.055,0.346 0.213,0.658 0.562,0.658 h 3.51 c 0.326,0 0.605,-0.238 0.656,-0.562 l 0.785,-4.971 c 0.072,-0.463 0.471,-0.803 0.938,-0.803 h 2.164 c 4.506,0 7.105,-2.18 7.785,-6.5 0.307,-1.89 0.012,-3.375 -0.873,-4.415 -0.971,-1.142 -2.694,-1.746 -4.983,-1.746 z m 0.789,6.405 c -0.373,2.454 -2.248,2.454 -4.062,2.454 h -1.031 l 0.725,-4.583 c 0.043,-0.277 0.281,-0.481 0.562,-0.481 h 0.473 c 1.234,0 2.4,0 3.002,0.704 0.359,0.42 0.468,1.044 0.331,1.906 z"
       id="path8-7" /><path
       fill="#179bd7"
       d="m 84.515904,56.486 h -3.273 c -0.281,0 -0.52,0.204 -0.562,0.481 l -0.145,0.916 -0.23,-0.332 c -0.709,-1.029 -2.289,-1.373 -3.867,-1.373 -3.619,0 -6.709,2.741 -7.311,6.586 -0.312,1.918 0.131,3.752 1.219,5.031 1,1.176 2.426,1.666 4.125,1.666 2.916,0 4.533,-1.875 4.533,-1.875 l -0.146,0.91 c -0.055,0.348 0.213,0.66 0.564,0.66 h 2.949 c 0.467,0 0.865,-0.34 0.938,-0.803 l 1.771,-11.209 c 0.054,-0.345 -0.214,-0.658 -0.565,-0.658 z m -4.565,6.374 c -0.314,1.871 -1.801,3.127 -3.695,3.127 -0.949,0 -1.711,-0.305 -2.199,-0.883 -0.484,-0.574 -0.666,-1.391 -0.514,-2.301 0.297,-1.855 1.805,-3.152 3.67,-3.152 0.93,0 1.686,0.309 2.184,0.892 0.501,0.589 0.699,1.411 0.554,2.317 z"
       id="path10" /><path
       fill="#179bd7"
       d="m 88.376904,50.641 -2.807,17.858 c -0.055,0.346 0.213,0.658 0.562,0.658 h 2.822 c 0.469,0 0.867,-0.34 0.939,-0.803 l 2.768,-17.536 c 0.055,-0.346 -0.213,-0.659 -0.562,-0.659 h -3.16 c -0.279,10e-4 -0.519,0.205 -0.562,0.482 z"
       id="path12" /></g><g
     id="g239"
     transform="matrix(2.430696,0,0,2.430696,-347.13921,-227.48818)"><path
       fill="#253b80"
       d="m -23.652096,72.565 0.523,-3.322 -1.165,-0.027 h -5.563 l 3.866,-24.513 c 0.012,-0.074 0.051,-0.143 0.108,-0.192 0.057,-0.049 0.13,-0.076 0.206,-0.076 h 9.38 c 3.114,0 5.263,0.648 6.385,1.927 0.526,0.6 0.861,1.227 1.023,1.917 0.17,0.724 0.173,1.589 0.007,2.644 l -0.012,0.077 v 0.676 l 0.526,0.298 c 0.443,0.235 0.795,0.504 1.065,0.812 0.45,0.513 0.741,1.165 0.864,1.938 0.127,0.795 0.085,1.741 -0.123,2.812 -0.24,1.232 -0.628,2.305 -1.152,3.183 -0.482,0.809 -1.096,1.48 -1.825,2 -0.696,0.494 -1.523,0.869 -2.458,1.109 -0.906,0.236 -1.939,0.355 -3.072,0.355 h -0.73 c -0.522,0 -1.029,0.188 -1.427,0.525 -0.399,0.344 -0.663,0.814 -0.744,1.328 l -0.055,0.299 -0.924,5.855 -0.042,0.215 c -0.011,0.068 -0.03,0.102 -0.058,0.125 -0.025,0.021 -0.061,0.035 -0.096,0.035 z"
       id="path14" /><path
       fill="#179bd7"
       d="m -7.870096,51.078 v 0 0 c -0.028,0.179 -0.06,0.362 -0.096,0.55 -1.237,6.351 -5.469,8.545 -10.874,8.545 h -2.752 c -0.661,0 -1.218,0.48 -1.321,1.132 v 0 0 l -1.409,8.936 -0.399,2.533 c -0.067,0.428 0.263,0.814 0.695,0.814 h 4.881 c 0.578,0 1.069,-0.42 1.16,-0.99 l 0.048,-0.248 0.919,-5.832 0.059,-0.32 c 0.09,-0.572 0.582,-0.992 1.16,-0.992 h 0.73 c 4.729,0 8.431,-1.92 9.513,-7.476 0.452,-2.321 0.218,-4.259 -0.978,-5.622 -0.362,-0.411 -0.811,-0.752 -1.336,-1.03 z"
       id="path16" /><path
       fill="#222d65"
       d="m -9.164096,50.562 c -0.189,-0.055 -0.384,-0.105 -0.584,-0.15 -0.201,-0.044 -0.407,-0.083 -0.619,-0.117 -0.742,-0.12 -1.555,-0.177 -2.426,-0.177 h -7.352 c -0.181,0 -0.353,0.041 -0.507,0.115 -0.339,0.163 -0.591,0.484 -0.652,0.877 l -1.564,9.906 -0.045,0.289 c 0.103,-0.652 0.66,-1.132 1.321,-1.132 h 2.752 c 5.405,0 9.637,-2.195 10.874,-8.545 0.037,-0.188 0.068,-0.371 0.096,-0.55 -0.313,-0.166 -0.652,-0.308 -1.017,-0.429 -0.09,-0.03 -0.183,-0.059 -0.277,-0.087 z"
       id="path18" /><path
       fill="#253b80"
       d="m -21.304096,51.11 c 0.061,-0.393 0.313,-0.714 0.652,-0.876 0.155,-0.074 0.326,-0.115 0.507,-0.115 h 7.352 c 0.871,0 1.684,0.057 2.426,0.177 0.212,0.034 0.418,0.073 0.619,0.117 0.2,0.045 0.395,0.095 0.584,0.15 0.094,0.028 0.187,0.057 0.278,0.086 0.365,0.121 0.704,0.264 1.017,0.429 0.368,-2.347 -0.003,-3.945 -1.272,-5.392 -1.399,-1.593 -3.924,-2.275 -7.155,-2.275 h -9.38 c -0.66,0 -1.223,0.48 -1.325,1.133 l -3.907,24.765 c -0.077,0.49 0.301,0.932 0.795,0.932 h 5.791 l 1.454,-9.225 z"
       id="path20" /></g></g></svg>
